<svg width="29" height="23" viewBox="0 0 29 23" fill="none" xmlns="http://www.w3.org/2000/svg">
<path d="M1.61111 23H27.3889C28.275 23 29 22.1375 29 21.0833C29 20.0292 28.275 19.1667 27.3889 19.1667H1.61111C0.725 19.1667 0 20.0292 0 21.0833C0 22.1375 0.725 23 1.61111 23ZM1.61111 13.4167H27.3889C28.275 13.4167 29 12.5542 29 11.5C29 10.4458 28.275 9.58333 27.3889 9.58333H1.61111C0.725 9.58333 0 10.4458 0 11.5C0 12.5542 0.725 13.4167 1.61111 13.4167ZM0 1.91667C0 2.97083 0.725 3.83333 1.61111 3.83333H27.3889C28.275 3.83333 29 2.97083 29 1.91667C29 0.8625 28.275 0 27.3889 0H1.61111C0.725 0 0 0.8625 0 1.91667Z" fill="black"/>
</svg>
